<?xml version="1.0" encoding="UTF-8"?>
<svg width="64px" height="23px" viewBox="0 0 64 23" version="1.1" xmlns="http://www.w3.org/2000/svg" xmlns:xlink="http://www.w3.org/1999/xlink">
    <title>benefit_01</title>
    <g id="슈퍼크루-이벤트" stroke="none" stroke-width="1" fill="none" fill-rule="evenodd">
        <g id="event_supercrew" transform="translate(-44.000000, -613.000000)">
            <g id="benefit_01" transform="translate(44.000000, 613.000000)">
                <rect id="Rectangle-Copy-5" fill="#1DBF6D" x="0" y="0" width="64" height="23" rx="11.5"></rect>
                <g id="혜택-01." transform="translate(10.388000, 5.964000)" fill="#FFFFFF" fill-rule="nonzero">
                    <path d="M3.684,0 L1.668,0 L1.668,1.296 L0,1.296 L0,3.108 L5.184,3.108 L5.184,1.296 L3.684,1.296 L3.684,0 Z M8.652,0.036 L8.652,10.284 L10.464,10.284 L10.464,0.036 L8.652,0.036 Z M6.216,2.76 L5.46,2.76 L5.46,4.644 L6.216,4.644 L6.216,5.868 L5.46,5.868 L5.46,7.752 L6.216,7.752 L6.216,10.104 L7.98,10.104 L7.98,0.084 L6.216,0.084 L6.216,2.76 Z M2.7,3.516 C1.308,3.516 0.264,4.572 0.264,6.72 C0.264,8.868 1.308,9.924 2.7,9.924 C4.092,9.924 5.136,8.868 5.136,6.72 C5.136,4.572 4.092,3.516 2.7,3.516 Z M2.7,8.184 C2.316,8.184 2.04,7.668 2.04,6.72 C2.04,5.772 2.316,5.256 2.7,5.256 C3.084,5.256 3.36,5.772 3.36,6.72 C3.36,7.668 3.084,8.184 2.7,8.184 Z" id="Shape"></path>
                    <path d="M20.112,0.036 L20.112,2.172 L19.26,2.172 L19.26,0.084 L17.388,0.084 L17.388,6.456 L19.26,6.456 L19.26,4.02 L20.112,4.02 L20.112,6.564 L22.008,6.564 L22.008,0.036 L20.112,0.036 Z M16.908,5.952 L16.908,4.38 C16.368,4.584 15.468,4.716 14.544,4.716 L13.872,4.716 L13.872,3.972 L16.428,3.972 L16.428,2.472 L13.872,2.472 L13.872,1.752 L16.572,1.752 L16.572,0.156 L11.988,0.156 L11.988,6.312 L14.424,6.312 C15.384,6.312 16.368,6.18 16.908,5.952 Z M12.528,8.592 L20.004,8.592 L20.004,10.404 L22.008,10.404 L22.008,6.924 L12.528,6.924 L12.528,8.592 Z" id="Shape"></path>
                    <path d="M30.348,0.072 C28.212,0.072 26.604,1.788 26.604,5.22 C26.604,8.64 28.212,10.356 30.348,10.356 C32.484,10.356 34.092,8.64 34.092,5.22 C34.092,1.788 32.484,0.072 30.348,0.072 Z M30.348,1.98 C31.308,1.98 32.028,2.988 32.028,5.22 C32.028,7.44 31.308,8.448 30.348,8.448 C29.388,8.448 28.668,7.44 28.668,5.22 C28.668,2.988 29.388,1.98 30.348,1.98 Z" id="Shape"></path>
                    <polygon id="Path" points="38.832 0.336 34.932 0.336 34.932 2.232 36.66 2.232 36.66 10.116 38.832 10.116"></polygon>
                    <path d="M41.796,7.812 C41.1,7.812 40.596,8.328 40.596,9.012 C40.596,9.696 41.1,10.212 41.796,10.212 C42.48,10.212 42.984,9.696 42.984,9.012 C42.984,8.328 42.48,7.812 41.796,7.812 Z" id="Path"></path>
                </g>
            </g>
        </g>
    </g>
</svg>