<?xml version="1.0" encoding="UTF-8"?><svg version="1.1" width="188px" height="19px" viewBox="0 0 188.0 19.0" xmlns="http://www.w3.org/2000/svg" xmlns:xlink="http://www.w3.org/1999/xlink"><defs><clipPath id="i0"><path d="M390,0 L390,2796 L0,2796 L0,0 L390,0 Z"></path></clipPath><clipPath id="i1"><path d="M17.28,10.66 L17.28,13.74 L13.66,13.74 L13.66,17.74 L10.3,17.74 L10.3,13.74 L6.98,13.74 L6.98,17.74 L3.62,17.74 L3.62,13.74 L0,13.74 L0,10.66 L17.28,10.66 Z M7.52,0 L10.96,0.5 C10.82,1.44 10.56,2.32 10.2,3.14 L17.22,6.6 L15.64,9.44 L8.56,5.7 C6.56,8.02 3.58,9.44 0.4,9.42 L0.4,6.24 C3.74,6.24 6.98,3.72 7.52,0 Z"></path></clipPath><clipPath id="i2"><path d="M16.36,0 L16.36,17.08 L12.98,17.08 L12.98,9.42 L10.8,9.42 L10.8,6.26 L12.98,6.26 L12.98,0 L16.36,0 Z M11.06,0.4 L11.06,3.46 L9.78,3.46 L9.78,13 C10.52,12.86 11.2,12.68 11.7,12.44 L11.7,15.46 C10.66,15.98 8.78,16.28 7.14,16.28 L0,16.28 L0,13.22 L1.4,13.22 L1.4,3.46 L0.12,3.46 L0.12,0.4 L11.06,0.4 Z M6.46,3.46 L4.72,3.46 L4.72,13.22 L6.46,13.22 L6.46,3.46 Z"></path></clipPath><clipPath id="i3"><path d="M17.28,12.92 L17.28,16.08 L0,16.08 L0,12.92 L17.28,12.92 Z M16.34,0 L16.34,11.84 L12.96,11.84 L12.96,9.12 L0.94,9.12 L0.94,5.98 L12.96,5.98 L12.96,3.16 L0.94,3.16 L0.94,0 L16.34,0 Z"></path></clipPath><clipPath id="i4"><path d="M17.28,11.12 L17.28,14.16 L10.38,14.16 L10.38,17.28 L6.9,17.28 L6.9,14.16 L0,14.16 L0,11.12 L17.28,11.12 Z M16.28,0 L16.28,6.32 L4.32,6.32 L4.32,7.3 L16.48,7.3 L16.48,10.06 L1.02,10.06 L1.02,3.74 L12.98,3.74 L12.98,2.76 L0.98,2.76 L0.98,0 L16.28,0 Z"></path></clipPath><clipPath id="i5"><path d="M4.46,11.1 L4.46,14.04 L16.54,14.04 L16.54,17.08 L1.02,17.08 L1.02,11.1 L4.46,11.1 Z M16.3,0 L16.3,12.64 L12.92,12.64 L12.92,0 L16.3,0 Z M4.64,0.08 L8.04,0.28 C8.04,1.64 7.8,2.98 7.36,4.2 L12.28,7.68 L10.3,10.08 L5.96,6.86 C4.52,8.84 2.42,10.2 0,10.32 L0,7.18 C2.7,6.86 4.58,3.84 4.64,0.08 Z"></path></clipPath><clipPath id="i6"><path d="M8.66,10.66 C13.02,10.66 16.46,11.5 16.46,14.12 C16.46,16.74 13.02,17.58 8.66,17.58 C4.3,17.58 0.86,16.74 0.86,14.12 C0.86,11.5 4.3,10.66 8.66,10.66 Z M8.90674745,13.2407781 L8.41325255,13.2407781 C6.20951531,13.254898 4.48,13.4642857 4.48,14.12 C4.48,14.82 6.34,15 8.66,15 C10.98,15 12.84,14.82 12.84,14.12 C12.84,13.44 10.98,13.24 8.66,13.24 Z M7.4,0 L7.4,1.58 L11.16,1.58 L11.16,3.54 L12.92,3.54 L12.92,0.3 L16.3,0.3 L16.3,10.44 L12.92,10.44 L12.92,6.54 L10.68,6.54 L10.68,4.3 L7.34,4.3 C7.26,4.62 7.18,4.94 7.06,5.24 L11.66,7.72 L10.14,10.2 L5.58,7.68 C4.26,9.18 2.32,10.26 0,10.32 L0,7.48 C2.04,7.32 3.4,5.9 3.88,4.3 L0.2,4.3 L0.2,1.58 L3.96,1.58 L3.96,0 L7.4,0 Z"></path></clipPath><clipPath id="i7"><path d="M15.68,0.06 L15.68,6.3 L17.68,6.3 L17.68,9.58 L15.68,9.58 L15.68,17.14 L12.3,17.14 L12.3,0.06 L15.68,0.06 Z M5.54,5.9 C8.62,5.9 10.5,8.2 10.5,11.22 C10.5,14.26 8.62,16.54 5.54,16.54 C2.46,16.54 0.58,14.26 0.58,11.22 C0.58,8.2 2.46,5.9 5.54,5.9 Z M5.54,8.8 C4.44,8.8 3.8,9.76 3.8,11.22 C3.8,12.68 4.44,13.64 5.54,13.64 C6.64,13.64 7.28,12.68 7.28,11.22 C7.28,9.76 6.64,8.8 5.54,8.8 Z M7.28,0 L7.28,2.12 L11.08,2.12 L11.08,5.2 L0,5.2 L0,2.12 L3.82,2.12 L3.82,0 L7.28,0 Z"></path></clipPath><clipPath id="i8"><path d="M15.86,0 L15.86,17.08 L12.48,17.08 L12.48,0 L15.86,0 Z M9.84,0.4 L9.84,5.02 C9.84,11.96 5.98,16.28 0,16.28 L0,13.08 C4.14,13.04 6.38,9.96 6.38,5.02 L6.38,3.48 L0,3.48 L0,0.4 L9.84,0.4 Z"></path></clipPath><clipPath id="i9"><path d="M14.7482507,0 C15.0409614,0 15.2867279,0.100768166 15.4855503,0.302304499 C15.6843726,0.503840832 15.7837838,0.752962132 15.7837838,1.0496684 L15.7837838,14.2182356 C15.7837838,14.5154508 15.6843726,14.7648266 15.4855503,14.9663629 C15.2867279,15.1673903 15.0409614,15.267904 14.7482507,15.267904 C14.4344528,15.267904 14.1781426,15.1673903 13.9793203,14.9663629 C13.7804979,14.7648266 13.6810868,14.5154508 13.6810868,14.2182356 L13.6810868,3.594828 L1.78864808,15.6816642 C1.57928212,15.8938881 1.33351559,16 1.05134851,16 C0.768679358,16 0.522661797,15.8938881 0.313295832,15.6816642 C0.104431944,15.4694403 0,15.2149753 0,14.918269 C0,14.6215627 0.104431944,14.3670977 0.313295832,14.1548738 L12.2381185,2.1313994 L1.75701725,2.1313994 C1.46430656,2.1313994 1.21854004,2.02528747 1.01971769,1.8130636 C0.82089533,1.60134866 0.721484152,1.3468836 0.721484152,1.0496684 C0.721484152,0.752962132 0.82089533,0.503840832 1.01971769,0.302304499 C1.21854004,0.100768166 1.46430656,0 1.75701725,0 L14.7482507,0 Z"></path></clipPath></defs><g transform="translate(-102.0 -2739.0)"><g clip-path="url(#i0)"><g transform="translate(13.0 2719.0)"><g transform="translate(89.0 20.0)"><g transform="translate(0.2983783783782883 0.7000000000000455)"><g transform="translate(0.0 0.03999999999996362)"><g clip-path="url(#i1)"><polygon points="0,0 17.28,0 17.28,17.74 0,17.74 0,0" stroke="none" fill="#FFFFFF"></polygon></g></g><g transform="translate(19.480000000000018 0.2999999999999545)"><g clip-path="url(#i2)"><polygon points="0,0 16.36,0 16.36,17.08 0,17.08 0,0" stroke="none" fill="#FFFFFF"></polygon></g></g><g transform="translate(44.08000000000004 0.6999999999999318)"><g clip-path="url(#i3)"><polygon points="0,0 17.28,0 17.28,16.08 0,16.08 0,0" stroke="none" fill="#FFFFFF"></polygon></g></g><g transform="translate(63.32000000000005 0.5)"><g clip-path="url(#i4)"><polygon points="0,0 17.28,0 17.28,17.28 0,17.28 0,0" stroke="none" fill="#FFFFFF"></polygon></g></g><g transform="translate(88.38 0.2999999999999545)"><g clip-path="url(#i5)"><polygon points="0,0 16.54,0 16.54,17.08 0,17.08 0,0" stroke="none" fill="#FFFFFF"></polygon></g></g><g transform="translate(107.7 0.0)"><g clip-path="url(#i6)"><polygon points="0,0 16.46,0 16.46,17.58 0,17.58 0,0" stroke="none" fill="#FFFFFF"></polygon></g></g><g transform="translate(127.00000000000011 0.2400000000000091)"><g clip-path="url(#i7)"><polygon points="0,0 17.68,0 17.68,17.14 0,17.14 0,0" stroke="none" fill="#FFFFFF"></polygon></g></g><g transform="translate(146.5400000000001 0.2999999999999545)"><g clip-path="url(#i8)"><polygon points="0,0 15.86,0 15.86,17.08 0,17.08 0,0" stroke="none" fill="#FFFFFF"></polygon></g></g></g><g transform="translate(171.6486486486485 2.0)"><g clip-path="url(#i9)"><polygon points="0,0 15.7837838,0 15.7837838,16 0,16 0,0" stroke="none" fill="#FFFFFF"></polygon></g><path d="M13.6810868,3.594828 L1.78864808,15.6816642 C1.57928212,15.8938881 1.33351559,16 1.05134851,16 C0.768679358,16 0.522661797,15.8938881 0.313295832,15.6816642 C0.104431944,15.4694403 0,15.2149753 0,14.918269 C0,14.6215627 0.104431944,14.3670977 0.313295832,14.1548738 L12.2381185,2.1313994 L1.75701725,2.1313994 C1.46430656,2.1313994 1.21854004,2.02528747 1.01971769,1.8130636 C0.82089533,1.60134866 0.721484152,1.3468836 0.721484152,1.0496684 C0.721484152,0.752962132 0.82089533,0.503840832 1.01971769,0.302304499 C1.21854004,0.100768166 1.46430656,0 1.75701725,0 L14.7482507,0 C15.0409614,0 15.2867279,0.100768166 15.4855503,0.302304499 C15.6843726,0.503840832 15.7837838,0.752962132 15.7837838,1.0496684 L15.7837838,14.2182356 C15.7837838,14.5154508 15.6843726,14.7648266 15.4855503,14.9663629 C15.2867279,15.1673903 15.0409614,15.267904 14.7482507,15.267904 C14.4344528,15.267904 14.1781426,15.1673903 13.9793203,14.9663629 C13.7804979,14.7648266 13.6810868,14.5154508 13.6810868,14.2182356 L13.6810868,3.594828 Z" stroke="#FFFFFF" stroke-width="0.95" fill="none" stroke-miterlimit="10"></path></g></g></g></g></g></svg>