<?xml version="1.0" encoding="UTF-8"?>
<svg width="58px" height="23px" viewBox="0 0 58 23" version="1.1" xmlns="http://www.w3.org/2000/svg" xmlns:xlink="http://www.w3.org/1999/xlink">
    <title>tag_second</title>
    <g id="슈퍼크루-이벤트" stroke="none" stroke-width="1" fill="none" fill-rule="evenodd">
        <g id="event_supercrew" transform="translate(-43.000000, -1892.000000)">
            <g id="tag_second" transform="translate(43.000000, 1892.000000)">
                <rect id="Rectangle-Copy-5" fill="#000000" x="0" y="0" width="58" height="23" rx="11.5"></rect>
                <g id="두-번째" transform="translate(10.592000, 6.000000)" fill="#FFFFFF" fill-rule="nonzero">
                    <path d="M9.888,3.552 L2.664,3.552 L2.664,1.98 L9.768,1.98 L9.768,0.12 L0.6,0.12 L0.6,5.4 L9.888,5.4 L9.888,3.552 Z M10.368,6.252 L0,6.252 L0,8.124 L4.14,8.124 L4.14,10.488 L6.228,10.488 L6.228,8.124 L10.368,8.124 L10.368,6.252 Z" id="Shape"></path>
                    <path d="M21.444,4.008 L22.836,4.008 L22.836,7.584 L24.864,7.584 L24.864,0 L22.836,0 L22.836,2.1 L21.444,2.1 L21.444,0.12 L19.464,0.12 L19.464,1.416 L17.172,1.416 L17.172,0.12 L15.192,0.12 L15.192,6.108 L21.444,6.108 L21.444,4.008 Z M17.172,4.416 L17.172,3.072 L19.464,3.072 L19.464,4.416 L17.172,4.416 Z M17.76,8.424 L17.76,6.708 L15.696,6.708 L15.696,10.248 L25.008,10.248 L25.008,8.424 L17.76,8.424 Z" id="Shape"></path>
                    <path d="M34.956,0 L34.956,3.768 L34.308,3.768 L34.308,0.048 L32.58,0.048 L32.58,7.824 L31.332,4.944 C31.416,4.092 31.464,3.132 31.488,2.064 L32.184,2.064 L32.184,0.24 L29.46,0.24 L29.46,2.064 L29.76,2.064 C29.748,4.332 29.652,6.108 29.364,7.116 L28.644,4.92 C28.728,4.08 28.776,3.12 28.8,2.064 L29.1,2.064 L29.1,0.24 L26.268,0.24 L26.268,2.064 L27.072,2.064 C27.06,5.292 26.868,7.488 26.076,7.692 L26.076,9.768 C27.024,9.648 27.672,8.928 28.104,7.656 L28.764,9.732 L28.764,9.768 L28.776,9.768 C29.736,9.636 30.396,8.88 30.828,7.572 L31.644,9.636 L32.58,9.192 L32.58,10.068 L34.308,10.068 L34.308,5.688 L34.956,5.688 L34.956,10.248 L36.708,10.248 L36.708,0 L34.956,0 Z" id="Path"></path>
                </g>
            </g>
        </g>
    </g>
</svg>