<?xml version="1.0" encoding="UTF-8"?>
<svg width="58px" height="23px" viewBox="0 0 58 23" version="1.1" xmlns="http://www.w3.org/2000/svg" xmlns:xlink="http://www.w3.org/1999/xlink">
    <title>tag_first</title>
    <g id="슈퍼크루-이벤트" stroke="none" stroke-width="1" fill="none" fill-rule="evenodd">
        <g id="event_supercrew" transform="translate(-43.000000, -1790.000000)">
            <g id="tag_first" transform="translate(43.000000, 1790.000000)">
                <rect id="Rectangle-Copy-5" fill="#000000" x="0" y="0" width="58" height="23" rx="11.5"></rect>
                <g id="첫-번째" transform="translate(10.772000, 5.820000)" fill="#FFFFFF" fill-rule="nonzero">
                    <path d="M3.432,4.86 L6.072,6.42 L7.032,4.92 L4.284,3.348 C4.356,3.144 4.404,2.928 4.44,2.712 L6.408,2.712 L6.408,4.188 L7.752,4.188 L7.752,7.248 L9.78,7.248 L9.78,0.18 L7.752,0.18 L7.752,2.388 L6.696,2.388 L6.696,1.044 L4.44,1.044 L4.44,0 L2.376,0 L2.376,1.044 L0.12,1.044 L0.12,2.712 L2.364,2.712 C2.136,3.744 1.284,4.632 0,4.74 L0,6.48 C1.428,6.444 2.628,5.784 3.432,4.86 Z M10.212,8.76 L6.264,7.644 C6.384,7.404 6.492,7.152 6.564,6.888 L4.536,6.504 C4.14,7.848 2.448,8.556 0.516,8.556 L0.516,10.428 C2.208,10.428 3.864,9.984 5.052,9.084 L9.564,10.56 L10.212,8.76 Z" id="Shape"></path>
                    <path d="M21.264,4.188 L22.656,4.188 L22.656,7.764 L24.684,7.764 L24.684,0.18 L22.656,0.18 L22.656,2.28 L21.264,2.28 L21.264,0.3 L19.284,0.3 L19.284,1.596 L16.992,1.596 L16.992,0.3 L15.012,0.3 L15.012,6.288 L21.264,6.288 L21.264,4.188 Z M16.992,4.596 L16.992,3.252 L19.284,3.252 L19.284,4.596 L16.992,4.596 Z M17.58,8.604 L17.58,6.888 L15.516,6.888 L15.516,10.428 L24.828,10.428 L24.828,8.604 L17.58,8.604 Z" id="Shape"></path>
                    <path d="M34.776,0.18 L34.776,3.948 L34.128,3.948 L34.128,0.228 L32.4,0.228 L32.4,8.004 L31.152,5.124 C31.236,4.272 31.284,3.312 31.308,2.244 L32.004,2.244 L32.004,0.42 L29.28,0.42 L29.28,2.244 L29.58,2.244 C29.568,4.512 29.472,6.288 29.184,7.296 L28.464,5.1 C28.548,4.26 28.596,3.3 28.62,2.244 L28.92,2.244 L28.92,0.42 L26.088,0.42 L26.088,2.244 L26.892,2.244 C26.88,5.472 26.688,7.668 25.896,7.872 L25.896,9.948 C26.844,9.828 27.492,9.108 27.924,7.836 L28.584,9.912 L28.584,9.948 L28.596,9.948 C29.556,9.816 30.216,9.06 30.648,7.752 L31.464,9.816 L32.4,9.372 L32.4,10.248 L34.128,10.248 L34.128,5.868 L34.776,5.868 L34.776,10.428 L36.528,10.428 L36.528,0.18 L34.776,0.18 Z" id="Path"></path>
                </g>
            </g>
        </g>
    </g>
</svg>