<?xml version="1.0" encoding="UTF-8"?><svg version="1.1" width="314px" height="77px" viewBox="0 0 314.0 77.0" xmlns="http://www.w3.org/2000/svg" xmlns:xlink="http://www.w3.org/1999/xlink"><defs><clipPath id="i0"><path d="M390,0 L390,2796 L0,2796 L0,0 L390,0 Z"></path></clipPath><clipPath id="i1"><path d="M314,0 L314,42 L0,42 L0,0 L314,0 Z"></path></clipPath><clipPath id="i2"><path d="M38.5354902,0 L38.5354902,40.4374055 L30.4754054,40.4374055 L30.4754054,0 L38.5354902,0 Z M26.8032647,0.946949116 L26.8032647,8.19160515 L23.6555043,8.19160515 L23.6555043,30.7778642 C25.4677392,30.4465604 27.0892903,30.0202315 28.3294739,29.4519153 L28.3294739,36.6019131 C25.8494763,37.8328369 21.3661904,38.5431404 17.4553254,38.5431404 L0,38.5431404 L0,31.2984844 L3.43378604,31.2984844 L3.43378604,8.19160515 L0.286025656,8.19160515 L0.286025656,0.946949116 L26.8032647,0.946949116 Z M15.7388019,8.19160515 L11.3508579,8.19160515 L11.3508579,31.2984844 L15.7388019,31.2984844 L15.7388019,8.19160515 Z"></path></clipPath><clipPath id="i3"><path d="M37.6770437,0 L37.6770437,40.4374055 L29.6169589,40.4374055 L29.6169589,0 L37.6770437,0 Z M23.7031752,0.946949116 L23.7031752,23.2015375 L8.10775568,23.2015375 L8.10775568,31.3461804 L16.930945,31.3461804 C20.7941391,31.3461804 24.9910298,30.5408517 27.4710274,29.4045862 L27.4710274,36.6019131 C24.9910298,37.8328369 20.6511263,38.5431404 16.5972484,38.5431404 L0.0953418854,38.5431404 L0.0953418854,16.0992356 L15.6907614,16.0992356 L15.6907614,8.14390915 L0,8.14390915 L0,0.946949116 L23.7031752,0.946949116 Z"></path></clipPath><clipPath id="i4"><path d="M41.2065411,24.5278532 L41.2065411,31.8671675 L24.7526751,31.8671675 L24.7526751,40.9110636 L16.4542356,40.9110636 L16.4542356,31.8671675 L0,31.8671675 L0,24.5278532 L41.2065411,24.5278532 Z M10.2540567,0 L10.2540567,3.64617602 L30.9524844,3.64617602 L30.9524844,0 L38.8218854,0 L38.8218854,21.3553352 L2.38465576,21.3553352 L2.38465576,0 L10.2540567,0 Z M30.9524844,10.6064905 L10.2536872,10.6064905 L10.2536872,14.2996287 L30.9524844,14.2996287 L30.9524844,10.6064905 Z"></path></clipPath><clipPath id="i5"><path d="M41.2065411,25.2377899 L41.2065411,32.5297751 L32.5744051,32.5297751 L32.5744051,42 L24.5619913,42 L24.5619913,32.5297751 L16.6449194,32.5297751 L16.6449194,42 L8.63250559,42 L8.63250559,32.5297751 L0,32.5297751 L0,25.2377899 L41.2065411,25.2377899 Z M17.9327739,0 L26.1358715,1.18359467 C25.8018053,3.40916357 25.1820831,5.49274514 24.3236366,7.43433938 L41.0635283,15.6259445 L37.2960457,22.3496135 L20.4127716,13.4950339 C15.64346,18.987779 8.5371637,22.3496135 0.954157938,22.3022843 L0.954157938,14.7732867 C8.91890079,14.7732867 16.6449194,8.80725049 17.9327739,0 Z"></path></clipPath><clipPath id="i6"><path d="M39.0125691,0 L39.0125691,40.4374055 L30.9521149,40.4374055 L30.9521149,22.3022843 L25.7537649,22.3022843 L25.7537649,14.8206159 L30.9521149,14.8206159 L30.9521149,0 L39.0125691,0 Z M26.3738567,0.946949116 L26.3738567,8.19160515 L23.3214382,8.19160515 L23.3214382,30.7778642 C25.0860021,30.4465604 26.7075533,30.0202315 27.9000659,29.4519153 L27.9000659,36.6019131 C25.4200683,37.8332038 20.9367824,38.5435073 17.0262869,38.5435073 L0,38.5435073 L0,31.2988513 L3.33844416,31.2988513 L3.33844416,8.19160515 L0.286025656,8.19160515 L0.286025656,0.946949116 L26.3738567,0.946949116 Z M15.4047358,8.19197205 L11.2555161,8.19197205 L11.2555161,31.2988513 L15.4047358,31.2988513 L15.4047358,8.19197205 Z"></path></clipPath><clipPath id="i7"><path d="M41.2065411,30.5889146 L41.2065411,38.0702162 L0,38.0702162 L0,30.5889146 L41.2065411,30.5889146 Z M38.9652677,0 L38.9652677,28.031675 L30.905183,28.031675 L30.905183,21.5919808 L2.24201247,21.5919808 L2.24201247,14.1580083 L30.905183,14.1580083 L30.905183,7.48166849 L2.24201247,7.48166849 L2.24201247,0 L38.9652677,0 Z"></path></clipPath><clipPath id="i8"><path d="M41.2065411,26.3270933 L41.2065411,33.5240533 L24.7526751,33.5240533 L24.7526751,40.9110636 L16.4542356,40.9110636 L16.4542356,33.5240533 L0,33.5240533 L0,26.3270933 L41.2065411,26.3270933 Z M38.8218854,0 L38.8218854,14.9626032 L10.3017277,14.9626032 L10.3017277,17.2828303 L39.2989643,17.2828303 L39.2989643,23.8171828 L2.4323267,23.8171828 L2.4323267,8.8545796 L30.9524844,8.8545796 L30.9524844,6.53435248 L2.33698482,6.53435248 L2.33698482,0 L38.8218854,0 Z"></path></clipPath><clipPath id="i9"><path d="M0.896878898,0 C1.39206543,0 1.7937578,0.398811968 1.7937578,0.890447696 C1.7937578,1.38208342 1.39206543,1.78089539 0.896878898,1.78089539 C0.401692362,1.78089539 0,1.38208342 0,0.890447696 C0,0.398811968 0.401692362,0 0.896878898,0 Z"></path></clipPath><clipPath id="i10"><path d="M0.896878898,0 C1.39206543,0 1.7937578,0.398811968 1.7937578,0.890447696 C1.7937578,1.38208342 1.39206543,1.78089539 0.896878898,1.78089539 C0.401692362,1.78089539 0,1.38208342 0,0.890447696 C0,0.398811968 0.401692362,0 0.896878898,0 Z"></path></clipPath><clipPath id="i11"><path d="M0.896878898,0 C1.39206543,0 1.7937578,0.398811968 1.7937578,0.890447696 C1.7937578,1.38208342 1.39206543,1.78089539 0.896878898,1.78089539 C0.401692362,1.78089539 0,1.38208342 0,0.890447696 C0,0.398811968 0.401692362,0 0.896878898,0 Z"></path></clipPath><clipPath id="i12"><path d="M0.896878898,0 C1.39206543,0 1.7937578,0.398811968 1.7937578,0.890447696 C1.7937578,1.38208342 1.39206543,1.78089539 0.896878898,1.78089539 C0.401692362,1.78089539 0,1.38208342 0,0.890447696 C0,0.398811968 0.401692362,0 0.896878898,0 Z"></path></clipPath><clipPath id="i13"><path d="M0.896878898,0 C1.39206543,0 1.7937578,0.398811968 1.7937578,0.890447696 C1.7937578,1.38208342 1.39206543,1.78089539 0.896878898,1.78089539 C0.401692362,1.78089539 0,1.38208342 0,0.890447696 C0,0.398811968 0.401692362,0 0.896878898,0 Z"></path></clipPath><clipPath id="i14"><path d="M0.896878898,0 C1.39206543,0 1.7937578,0.398811968 1.7937578,0.890447696 C1.7937578,1.38208342 1.39206543,1.78089539 0.896878898,1.78089539 C0.401692362,1.78089539 0,1.38208342 0,0.890447696 C0,0.398811968 0.401692362,0 0.896878898,0 Z"></path></clipPath><clipPath id="i15"><path d="M0.896878898,0 C1.39206543,0 1.7937578,0.398811968 1.7937578,0.890447696 C1.7937578,1.38208342 1.39206543,1.78089539 0.896878898,1.78089539 C0.401692362,1.78089539 0,1.38208342 0,0.890447696 C0,0.398811968 0.401692362,0 0.896878898,0 Z"></path></clipPath><clipPath id="i16"><path d="M0.896878898,0 C1.39206543,0 1.7937578,0.398811968 1.7937578,0.890447696 C1.7937578,1.38208342 1.39206543,1.78089539 0.896878898,1.78089539 C0.401692362,1.78089539 0,1.38208342 0,0.890447696 C0,0.398811968 0.401692362,0 0.896878898,0 Z"></path></clipPath><clipPath id="i17"><path d="M0.896878898,0 C1.39206543,0 1.7937578,0.398811968 1.7937578,0.890447696 C1.7937578,1.38208342 1.39206543,1.78089539 0.896878898,1.78089539 C0.401692362,1.78089539 0,1.38208342 0,0.890447696 C0,0.398811968 0.401692362,0 0.896878898,0 Z"></path></clipPath><clipPath id="i18"><path d="M0.896878898,0 C1.39206543,0 1.7937578,0.398811968 1.7937578,0.890447696 C1.7937578,1.38208342 1.39206543,1.78089539 0.896878898,1.78089539 C0.401692362,1.78089539 0,1.38208342 0,0.890447696 C0,0.398811968 0.401692362,0 0.896878898,0 Z"></path></clipPath><clipPath id="i19"><path d="M0.896878898,0 C1.39206543,0 1.7937578,0.398811968 1.7937578,0.890447696 C1.7937578,1.38208342 1.39206543,1.78089539 0.896878898,1.78089539 C0.401692362,1.78089539 0,1.38208342 0,0.890447696 C0,0.398811968 0.401692362,0 0.896878898,0 Z"></path></clipPath><clipPath id="i20"><path d="M13.356,0 L13.356,6.228 L15.516,6.228 L15.516,7.938 L13.356,7.938 L13.356,15.372 L11.574,15.372 L11.574,0 L13.356,0 Z M8.37,0.558 L8.37,4.266 C8.37,10.386 5.22,14.418 0,14.418 L0,12.726 C4.176,12.708 6.552,9.45 6.552,4.302 L6.552,2.196 L0,2.196 L0,0.558 L8.37,0.558 Z"></path></clipPath><clipPath id="i21"><path d="M7.344,9 C11.034,9 13.932,9.882 13.932,12.186 C13.932,14.49 11.034,15.372 7.344,15.372 C3.672,15.372 0.756,14.49 0.756,12.186 C0.756,9.882 3.672,9 7.344,9 Z M7.344,10.476 C4.734,10.476 2.664,11.016 2.664,12.186 C2.664,13.374 4.734,13.896 7.344,13.896 C9.972,13.896 12.024,13.374 12.024,12.186 C12.024,11.016 9.972,10.476 7.344,10.476 Z M13.698,0 L13.698,2.934 L15.858,2.934 L15.858,4.626 L13.698,4.626 L13.698,8.496 L11.916,8.496 L11.916,0 L13.698,0 Z M10.008,0.396 L10.008,1.926 L6.12,1.926 C6.084,2.52 5.976,3.096 5.814,3.636 L10.494,6.516 L9.612,7.848 L5.166,5.058 C4.122,6.768 2.304,7.956 0,8.19 L0,6.588 C2.538,6.246 4.104,4.374 4.338,1.926 L0.198,1.926 L0.198,0.396 L10.008,0.396 Z"></path></clipPath><clipPath id="i22"><path d="M14.292,8.928 L14.292,12.6 L2.808,12.6 L2.808,13.68 L14.562,13.68 L14.562,15.012 L1.062,15.012 L1.062,11.34 L12.546,11.34 L12.546,10.26 L1.026,10.26 L1.026,8.928 L14.292,8.928 Z M15.354,6.264 L15.354,7.65 L0,7.65 L0,6.264 L15.354,6.264 Z M14.292,0 L14.292,1.386 L8.838,1.386 C8.766,1.746 8.622,2.088 8.424,2.412 L14.706,3.996 L14.292,5.364 L7.326,3.528 C5.742,4.662 3.204,5.238 0.792,5.292 L0.792,3.888 C3.438,3.816 6.444,3.042 7.02,1.386 L1.044,1.386 L1.044,0 L14.292,0 Z"></path></clipPath><clipPath id="i23"><path d="M13.824,0 L13.824,15.372 L12.042,15.372 L12.042,7.92 L7.938,7.92 C6.912,11.934 4.086,14.418 0,14.418 L0,12.726 C4.176,12.708 6.552,9.45 6.552,4.302 L6.552,2.196 L0,2.196 L0,0.558 L8.37,0.558 L8.37,4.266 C8.37,4.95 8.334,5.616 8.244,6.246 L12.042,6.246 L12.042,0 L13.824,0 Z"></path></clipPath><clipPath id="i24"><path d="M2.88,10.908 L2.88,13.752 L14.562,13.752 L14.562,15.282 L1.062,15.282 L1.062,10.908 L2.88,10.908 Z M15.354,7.974 L15.354,9.486 L8.568,9.486 L8.568,12.132 L6.768,12.132 L6.768,9.486 L0,9.486 L0,7.974 L15.354,7.974 Z M7.668,0 C11.394,0 14.49,1.044 14.49,3.312 C14.49,5.598 11.394,6.642 7.668,6.642 C3.942,6.642 0.846,5.598 0.846,3.312 C0.846,1.044 3.942,0 7.668,0 Z M7.668,1.44 C4.986,1.44 2.736,2.07 2.736,3.312 C2.736,4.572 4.986,5.202 7.668,5.202 C10.35,5.202 12.6,4.572 12.6,3.312 C12.6,2.07 10.35,1.44 7.668,1.44 Z"></path></clipPath><clipPath id="i25"><path d="M2.826,10.278 L2.826,13.554 L14.292,13.554 L14.292,15.174 L1.026,15.174 L1.026,10.278 L2.826,10.278 Z M13.878,0 L13.878,3.492 L16.038,3.492 L16.038,5.202 L13.878,5.202 L13.878,11.412 L12.096,11.412 L12.096,0 L13.878,0 Z M4.662,0.144 L6.444,0.252 C6.444,1.566 6.228,2.826 5.814,3.978 L10.674,7.65 L9.594,8.928 L5.112,5.472 C3.996,7.416 2.232,8.802 0,9.09 L0,7.416 C2.916,6.894 4.626,3.726 4.662,0.144 Z"></path></clipPath><clipPath id="i26"><path d="M14.652,10.746 L14.652,15.624 L12.888,15.624 L12.888,12.276 L1.08,12.276 L1.08,10.746 L14.652,10.746 Z M14.652,0.252 L14.652,9.9 L12.96,9.9 L12.96,5.526 L10.458,5.526 L10.458,9.738 L8.766,9.738 L8.766,0.342 L10.458,0.342 L10.458,3.852 L12.96,3.852 L12.96,0.252 L14.652,0.252 Z M4.806,0 L4.806,1.818 L7.614,1.818 L7.614,3.33 L4.788,3.33 C4.77,3.96 4.68,4.536 4.554,5.076 L8.046,8.226 L6.966,9.396 L3.978,6.624 C3.168,8.226 1.782,9.252 0,9.468 L0,7.902 C1.872,7.542 2.952,5.904 3.078,3.33 L0.18,3.33 L0.18,1.818 L3.078,1.818 L3.078,0 L4.806,0 Z"></path></clipPath><clipPath id="i27"><path d="M14.328,0 L14.328,8.712 L8.568,8.712 L8.568,12.402 L15.354,12.402 L15.354,14.076 L0,14.076 L0,12.402 L6.75,12.402 L6.75,8.712 L1.008,8.712 L1.008,0 L14.328,0 Z M12.546,1.674 L2.79,1.674 L2.79,7.056 L12.546,7.056 L12.546,1.674 Z"></path></clipPath><clipPath id="i28"><path d="M14.13,9.198 L14.13,15.174 L1.278,15.174 L1.278,9.198 L14.13,9.198 Z M12.348,10.71 L3.06,10.71 L3.06,13.662 L12.348,13.662 L12.348,10.71 Z M14.13,0 L14.13,8.352 L12.348,8.352 L12.348,0 L14.13,0 Z M4.824,0.162 C7.758,0.162 9.63,1.764 9.63,4.068 C9.63,6.39 7.758,7.974 4.824,7.974 C1.872,7.974 0,6.39 0,4.068 C0,1.764 1.872,0.162 4.824,0.162 Z M4.824,1.638 C3.024,1.638 1.782,2.538 1.782,4.068 C1.782,5.598 3.024,6.498 4.824,6.498 C6.606,6.498 7.848,5.598 7.848,4.068 C7.848,2.538 6.606,1.638 4.824,1.638 Z"></path></clipPath><clipPath id="i29"><path d="M14.292,9.162 L14.292,12.834 L2.808,12.834 L2.808,13.914 L14.562,13.914 L14.562,15.246 L1.062,15.246 L1.062,11.574 L12.546,11.574 L12.546,10.494 L1.026,10.494 L1.026,9.162 L14.292,9.162 Z M15.354,6.552 L15.354,7.938 L0,7.938 L0,6.552 L15.354,6.552 Z M7.668,0 C11.376,0 14.418,0.756 14.418,2.79 C14.418,4.842 11.376,5.598 7.668,5.598 C3.96,5.598 0.918,4.842 0.918,2.79 C0.918,0.756 3.96,0 7.668,0 Z M7.668,1.35 C4.986,1.35 2.754,1.782 2.754,2.79 C2.754,3.816 4.986,4.23 7.668,4.23 C10.35,4.23 12.582,3.816 12.582,2.79 C12.582,1.782 10.35,1.35 7.668,1.35 Z"></path></clipPath><clipPath id="i30"><path d="M13.896,10.008 L13.896,11.43 L8.55,11.43 C8.424,11.772 8.28,12.096 8.1,12.384 L14.274,14.184 L13.806,15.66 L7.092,13.518 C5.544,14.814 3.096,15.444 0.63,15.444 L0.63,13.95 C3.348,13.95 5.832,13.014 6.642,11.43 L0.81,11.43 L0.81,10.008 L13.896,10.008 Z M13.698,0.27 L13.698,3.672 L15.858,3.672 L15.858,5.382 L13.698,5.382 L13.698,9.162 L11.916,9.162 L11.916,0.27 L13.698,0.27 Z M6.03,0 L6.03,1.692 L10.044,1.692 L10.044,3.186 L6.012,3.186 C5.94,3.69 5.814,4.176 5.634,4.644 L10.314,7.362 L9.468,8.712 L4.914,6.012 C3.852,7.542 2.124,8.64 0,8.874 L0,7.326 C2.34,6.984 3.834,5.328 4.194,3.186 L0.162,3.186 L0.162,1.692 L4.23,1.692 L4.23,0 L6.03,0 Z"></path></clipPath><clipPath id="i31"><path d="M13.428,0 L13.428,6.228 L15.588,6.228 L15.588,7.938 L13.428,7.938 L13.428,15.372 L11.646,15.372 L11.646,0 L13.428,0 Z M4.59,0.36 C7.272,0.36 9.162,2.628 9.162,7.506 C9.162,12.384 7.272,14.652 4.59,14.652 C1.89,14.652 0,12.384 0,7.506 C0,2.628 1.89,0.36 4.59,0.36 Z M4.59,1.998 C2.988,1.998 1.782,3.618 1.782,7.506 C1.782,11.412 2.988,13.014 4.59,13.014 C6.174,13.014 7.38,11.412 7.38,7.506 C7.38,3.618 6.174,1.998 4.59,1.998 Z"></path></clipPath><clipPath id="i32"><path d="M13.23,0 L13.23,6.228 L15.39,6.228 L15.39,7.938 L13.23,7.938 L13.23,15.372 L11.448,15.372 L11.448,0 L13.23,0 Z M8.532,0.558 L8.532,8.208 L1.8,8.208 L1.8,12.816 L6.138,12.816 C7.596,12.816 9.18,12.546 10.116,12.096 L10.116,13.716 C9.18,14.184 7.578,14.454 6.102,14.454 L0.036,14.454 L0.036,6.57 L6.75,6.57 L6.75,2.196 L0,2.196 L0,0.558 L8.532,0.558 Z"></path></clipPath><clipPath id="i33"><path d="M1.332,12.06 C2.088,12.06 2.664,12.636 2.664,13.374 C2.664,14.13 2.088,14.706 1.332,14.706 C0.576,14.706 0,14.13 0,13.374 C0,12.636 0.576,12.06 1.332,12.06 Z M2.484,0 L2.016,10.422 L0.648,10.422 L0.198,0 L2.484,0 Z"></path></clipPath></defs><g transform="translate(-38.0 -202.0)"><g clip-path="url(#i0)"><g transform="translate(38.0 202.0)"><g clip-path="url(#i1)"><g transform="translate(0.0 0.615645337409827)"><g clip-path="url(#i2)"><polygon points="0,0 38.5354902,0 38.5354902,40.4374055 0,40.4374055 0,0" stroke="none" fill="#1DBE6C"></polygon></g></g><g transform="translate(44.63884900553138 0.615645337409827)"><g clip-path="url(#i3)"><polygon points="0,0 37.6770437,0 37.6770437,40.4374055 0,40.4374055 0,0" stroke="none" fill="#1DBE6C"></polygon></g></g><g transform="translate(86.65468753677769 1.0889364490062476)"><g clip-path="url(#i4)"><polygon points="0,0 41.2065411,0 41.2065411,40.9110636 0,40.9110636 0,0" stroke="none" fill="#1DBE6C"></polygon></g></g><g transform="translate(141.5949316229257 -0.00018344616728427354)"><g clip-path="url(#i5)"><polygon points="0,0.000183446167 41.2065411,0.000183446167 41.2065411,42 0,42 0,0.000183446167" stroke="none" fill="#FF645A"></polygon></g></g><g transform="translate(185.9004166176296 0.6154985804760429)"><g clip-path="url(#i6)"><polygon points="0,0 39.0125691,0 39.0125691,40.4374055 0,40.4374055 0,0" stroke="none" fill="#FF645A"></polygon></g></g><g transform="translate(229.0605425444274 1.562337628303176)"><g clip-path="url(#i7)"><polygon points="0,0 41.2065411,0 41.2065411,38.0702162 0,38.0702162 0,0" stroke="none" fill="#FF645A"></polygon></g></g><g transform="translate(272.79349582205487 1.0890098274732516)"><g clip-path="url(#i8)"><polygon points="0,0 41.2065042,0 41.2065042,40.9109902 0,40.9109902 0,0" stroke="none" fill="#FF645A"></polygon></g></g><g transform="translate(1.5176358714840532 2.698199606901067)"><g clip-path="url(#i9)"><polygon points="0,0 1.7937578,0 1.7937578,1.78089539 0,1.78089539 0,0" stroke="none" fill="#FFFFFF"></polygon></g></g><g transform="translate(31.45628127574438 1.686604062022274)"><g clip-path="url(#i10)"><polygon points="0,0 1.7937578,0 1.7937578,1.78089539 0,1.78089539 0,0" stroke="none" fill="#FFFFFF"></polygon></g></g><g transform="translate(45.67371495822053 2.577051758025771)"><g clip-path="url(#i11)"><polygon points="0,0 1.7937578,0 1.7937578,1.78089539 0,1.78089539 0,0" stroke="none" fill="#FFFFFF"></polygon></g></g><g transform="translate(75.38280075320701 1.686604062022274)"><g clip-path="url(#i12)"><polygon points="0,0 1.7937578,0 1.7937578,1.78089539 0,1.78089539 0,0" stroke="none" fill="#FFFFFF"></polygon></g></g><g transform="translate(90.01127621513473 2.016733784669139)"><g clip-path="url(#i13)"><polygon points="0,0 1.7937578,0 1.7937578,1.78089539 0,1.78089539 0,0" stroke="none" fill="#FFFFFF"></polygon></g></g><g transform="translate(118.5032378486524 2.016733784669139)"><g clip-path="url(#i14)"><polygon points="0,0 1.7937578,0 1.7937578,1.78089539 0,1.78089539 0,0" stroke="none" fill="#FFFFFF"></polygon></g></g><g transform="translate(160.4235866776509 1.591285433500762)"><g clip-path="url(#i15)"><polygon points="0,0 1.7937578,0 1.7937578,1.78089539 0,1.78089539 0,0" stroke="none" fill="#FFFFFF"></polygon></g></g><g transform="translate(187.1196841238084 2.48173312950426)"><g clip-path="url(#i16)"><polygon points="0,0 1.7937578,0 1.7937578,1.78089539 0,1.78089539 0,0" stroke="none" fill="#FFFFFF"></polygon></g></g><g transform="translate(217.7946792985759 1.49673727888185)"><g clip-path="url(#i17)"><polygon points="0,0 1.7937578,0 1.7937578,1.78089539 0,1.78089539 0,0" stroke="none" fill="#FFFFFF"></polygon></g></g><g transform="translate(232.155384488643 2.387148285651888)"><g clip-path="url(#i18)"><polygon points="0,0 1.7937578,0 1.7937578,1.78089539 0,1.78089539 0,0" stroke="none" fill="#FFFFFF"></polygon></g></g><g transform="translate(276.0036718841944 1.908500545970734)"><g clip-path="url(#i19)"><polygon points="0,0 1.7937578,0 1.7937578,1.78089539 0,1.78089539 0,0" stroke="none" fill="#FFFFFF"></polygon></g></g></g><g transform="translate(33.573999999999955 61.23000000000002)"><g transform="translate(0.0 0.2699999999999818)"><g clip-path="url(#i20)"><polygon points="0,0 15.516,0 15.516,15.372 0,15.372 0,0" stroke="none" fill="#814D00"></polygon></g></g><g transform="translate(16.974000000000046 0.2699999999999818)"><g clip-path="url(#i21)"><polygon points="0,0 15.858,0 15.858,15.372 0,15.372 0,0" stroke="none" fill="#814D00"></polygon></g></g><g transform="translate(39.11400000000003 0.4500000000000455)"><g clip-path="url(#i22)"><polygon points="0,0 15.354,0 15.354,15.012 0,15.012 0,0" stroke="none" fill="#814D00"></polygon></g></g><g transform="translate(57.07800000000009 0.2699999999999818)"><g clip-path="url(#i23)"><polygon points="0,0 13.824,0 13.824,15.372 0,15.372 0,0" stroke="none" fill="#814D00"></polygon></g></g><g transform="translate(73.74599999999998 0.18000000000006366)"><g clip-path="url(#i24)"><polygon points="0,0 15.354,0 15.354,15.282 0,15.282 0,0" stroke="none" fill="#814D00"></polygon></g></g><g transform="translate(96.13800000000003 0.2699999999999818)"><g clip-path="url(#i25)"><polygon points="0,0 16.038,0 16.038,15.174 0,15.174 0,0" stroke="none" fill="#814D00"></polygon></g></g><g transform="translate(113.544 0.018000000000029104)"><g clip-path="url(#i26)"><polygon points="0,0 14.652,0 14.652,15.624 0,15.624 0,0" stroke="none" fill="#814D00"></polygon></g></g><g transform="translate(135.774 0.8279999999999745)"><g clip-path="url(#i27)"><polygon points="0,0 15.354,0 15.354,14.076 0,14.076 0,0" stroke="none" fill="#814D00"></polygon></g></g><g transform="translate(153.306 0.2699999999999818)"><g clip-path="url(#i28)"><polygon points="0,0 14.13,0 14.13,15.174 0,15.174 0,0" stroke="none" fill="#814D00"></polygon></g></g><g transform="translate(170.4060000000001 0.2159999999998945)"><g clip-path="url(#i29)"><polygon points="0,0 15.354,0 15.354,15.246 0,15.246 0,0" stroke="none" fill="#814D00"></polygon></g></g><g transform="translate(192.9780000000001 0.0)"><g clip-path="url(#i30)"><polygon points="0,0 15.858,0 15.858,15.66 0,15.66 0,0" stroke="none" fill="#814D00"></polygon></g></g><g transform="translate(210.5640000000001 0.2699999999999818)"><g clip-path="url(#i31)"><polygon points="0,0 15.588,0 15.588,15.372 0,15.372 0,0" stroke="none" fill="#814D00"></polygon></g></g><g transform="translate(228.0780000000001 0.2699999999999818)"><g clip-path="url(#i32)"><polygon points="0,0 15.39,0 15.39,15.372 0,15.372 0,0" stroke="none" fill="#814D00"></polygon></g></g><g transform="translate(244.7280000000001 0.8460000000000036)"><g clip-path="url(#i33)"><polygon points="0,0 2.664,0 2.664,14.706 0,14.706 0,0" stroke="none" fill="#814D00"></polygon></g></g></g></g></g></g></svg>