<?xml version="1.0" encoding="UTF-8"?><svg version="1.1" width="390px" height="17px" viewBox="0 0 390.0 17.0" xmlns="http://www.w3.org/2000/svg" xmlns:xlink="http://www.w3.org/1999/xlink"><defs><clipPath id="i0"><path d="M390,0 L390,2796 L0,2796 L0,0 L390,0 Z"></path></clipPath><clipPath id="i1"><path d="M244.899699,0 C247.442549,0 248.825091,2.27222092 249.047326,6.81666276 C244.085404,6.81666276 241.915404,8.81666276 238.815404,11.0666628 C235.715404,13.5666628 231.685404,16.8166628 224.245404,16.8166628 C216.805404,16.8166628 212.775404,13.5666628 209.675404,11.0666628 C206.575404,8.56666276 204.405404,6.81666276 199.445404,6.81666276 C194.485404,6.81666276 192.315404,8.81666276 189.215404,11.0666628 C186.115404,13.5666628 182.085404,16.8166628 174.645404,16.8166628 C167.205404,16.8166628 163.175404,13.5666628 160.075404,11.0666628 C156.975404,8.56666276 154.805404,6.81666276 149.845404,6.81666276 C144.885404,6.81666276 142.715404,8.81666276 139.615404,11.0666628 C136.515404,13.5666628 132.485404,16.8166628 125.045404,16.8166628 C117.605404,16.8166628 113.575404,13.5666628 110.475404,11.0666628 C107.375404,8.56666276 105.205404,6.81666276 100.245404,6.81666276 C95.2854043,6.81666276 93.1154043,8.81666276 90.0154043,11.0666628 C86.9154043,13.5666628 82.8854043,16.8166628 75.4454043,16.8166628 C68.0054043,16.8166628 63.9754043,13.5666628 60.8754043,11.0666628 C57.7754043,8.56666276 55.6054043,6.81666276 50.6454043,6.81666276 C45.6854043,6.81666276 43.5154043,8.81666276 40.4154043,11.0666628 C37.3154043,13.5666628 33.2854043,16.8166628 25.8454043,16.8166628 C18.4054043,16.8166628 14.3754043,13.5666628 11.2754043,11.0666628 C8.17540425,8.56666276 6.00540425,6.81666276 1.04540425,6.81666276 C-0.521935908,2.27222092 -0.326879963,0 1.63057209,0 L244.899699,0 Z"></path></clipPath></defs><g transform="translate(0.0 -2277.0)"><g clip-path="url(#i0)"><g transform="translate(-53.99999999999997 2277.0)"><g transform="translate(0.0 16.81666276397563) scale(1.0 -1.0)"><g clip-path="url(#i1)"><polygon points="54,0 249.047326,0 249.047326,16.8166628 54,16.8166628 54,0" stroke="none" fill="#FFFFFF"></polygon></g></g><g transform="translate(248.0 16.81666276397563) scale(1.0 -1.0)"><g clip-path="url(#i1)"><polygon points="0,0 196,0 196,16.8166628 0,16.8166628 0,0" stroke="none" fill="#FFFFFF"></polygon></g></g></g></g></g></svg>